<?xml version="1.0" standalone="no"?>
<!DOCTYPE svg PUBLIC "-//W3C//DTD SVG 20010904//EN"
 "http://www.w3.org/TR/2001/REC-SVG-20010904/DTD/svg10.dtd">
<svg version="1.0" xmlns="http://www.w3.org/2000/svg"
 width="325.000000pt" height="325.000000pt" viewBox="0 0 325.000000 325.000000"
 preserveAspectRatio="xMidYMid meet">
<metadata>
Created by potrace 1.11, written by Peter Selinger 2001-2013
</metadata>
<g transform="translate(0.000000,325.000000) scale(0.100000,-0.100000)"
fill="#000000" stroke="none">
<path d="M1426 3085 c-596 -85 -1085 -523 -1231 -1102 -151 -602 94 -1234 616
-1585 154 -103 369 -190 562 -225 126 -23 389 -23 515 0 570 105 1030 528
1172 1080 158 611 -84 1244 -611 1599 -152 102 -372 191 -556 224 -125 22
-346 26 -467 9z m409 -1162 c76 -208 141 -381 144 -385 4 -4 58 135 120 310
63 174 125 347 139 385 l24 67 249 0 249 0 0 -650 0 -650 -205 0 -205 0 -2
309 -3 309 -96 -306 -95 -307 -175 -3 -176 -2 -94 304 -94 305 -3 -305 -2
-304 -205 0 -205 0 0 650 0 650 248 0 249 0 138 -377z"/>
</g>
</svg>
